<svg width="1280" height="588" xmlns="http://www.w3.org/2000/svg"><g><path d="M-31,-119L-67,54L33,-36Z" fill="#f9faff" stroke="#f9faff" fill-opacity="1" stroke-opacity="1"/><path d="M-31,-119L33,-36L283,-125Z" fill="#eef4fc" stroke="#eef4fc" fill-opacity="1" stroke-opacity="1"/><path d="M-31,-119L283,-125L470,-130Z" fill="#e0ecf6" stroke="#e0ecf6" fill-opacity="1" stroke-opacity="1"/><path d="M33,-36L-67,54L65,94Z" fill="#f3f9ff" stroke="#f3f9ff" fill-opacity="1" stroke-opacity="1"/><path d="M33,-36L65,94L226,100Z" fill="#e8f3fb" stroke="#e8f3fb" fill-opacity="1" stroke-opacity="1"/><path d="M33,-36L226,100L283,-125Z" fill="#e6eff8" stroke="#e6eff8" fill-opacity="1" stroke-opacity="1"/><path d="M283,-125L226,100L413,35Z" fill="#d9eaf4" stroke="#d9eaf4" fill-opacity="1" stroke-opacity="1"/><path d="M283,-125L413,35L413,-110Z" fill="#d4e7f2" stroke="#d4e7f2" fill-opacity="1" stroke-opacity="1"/><path d="M283,-125L413,-110L470,-130Z" fill="#d2e6f1" stroke="#d2e6f1" fill-opacity="1" stroke-opacity="1"/><path d="M413,-110L413,35L470,-130Z" fill="#cee4f0" stroke="#cee4f0" fill-opacity="1" stroke-opacity="1"/><path d="M470,-130L413,35L539,63Z" fill="#c9e2ef" stroke="#c9e2ef" fill-opacity="1" stroke-opacity="1"/><path d="M470,-130L539,63L724,-76Z" fill="#bddbec" stroke="#bddbec" fill-opacity="1" stroke-opacity="1"/><path d="M470,-130L724,-76L1072,-134Z" fill="#a6cbe4" stroke="#a6cbe4" fill-opacity="1" stroke-opacity="1"/><path d="M724,-76L539,63L732,117Z" fill="#aed4e9" stroke="#aed4e9" fill-opacity="1" stroke-opacity="1"/><path d="M724,-76L732,117L831,-17Z" fill="#a4cae4" stroke="#a4cae4" fill-opacity="1" stroke-opacity="1"/><path d="M724,-76L831,-17L1072,-134Z" fill="#96bedd" stroke="#96bedd" fill-opacity="1" stroke-opacity="1"/><path d="M831,-17L732,117L842,67Z" fill="#9ac6e1" stroke="#9ac6e1" fill-opacity="1" stroke-opacity="1"/><path d="M831,-17L842,67L967,56Z" fill="#92bedc" stroke="#92bedc" fill-opacity="1" stroke-opacity="1"/><path d="M831,-17L967,56L1028,-60Z" fill="#90b7d7" stroke="#90b7d7" fill-opacity="1" stroke-opacity="1"/><path d="M831,-17L1028,-60L1072,-134Z" fill="#8cb3d5" stroke="#8cb3d5" fill-opacity="1" stroke-opacity="1"/><path d="M1028,-60L967,56L1156,51Z" fill="#84aacf" stroke="#84aacf" fill-opacity="1" stroke-opacity="1"/><path d="M1028,-60L1156,51L1072,-134Z" fill="#82a6cc" stroke="#82a6cc" fill-opacity="1" stroke-opacity="1"/><path d="M1072,-134L1156,51L1235,-86Z" fill="#809ec7" stroke="#809ec7" fill-opacity="1" stroke-opacity="1"/><path d="M1072,-134L1235,-86L1478,-53Z" fill="#8092bf" stroke="#8092bf" fill-opacity="1" stroke-opacity="1"/><path d="M1235,-86L1156,51L1335,76Z" fill="#7e94c0" stroke="#7e94c0" fill-opacity="1" stroke-opacity="1"/><path d="M1235,-86L1335,76L1478,-53Z" fill="#8088b8" stroke="#8088b8" fill-opacity="1" stroke-opacity="1"/><path d="M1478,-53L1335,76L1467,84Z" fill="#7c80b2" stroke="#7c80b2" fill-opacity="1" stroke-opacity="1"/><path d="M-67,54L-123,676L-83,331Z" fill="#aad6f6" stroke="#aad6f6" fill-opacity="1" stroke-opacity="1"/><path d="M-67,54L-83,331L-73,198Z" fill="#ddf6ff" stroke="#ddf6ff" fill-opacity="1" stroke-opacity="1"/><path d="M-67,54L-73,198L65,94Z" fill="#ecfaff" stroke="#ecfaff" fill-opacity="1" stroke-opacity="1"/><path d="M65,94L-73,198L107,173Z" fill="#ddf3fe" stroke="#ddf3fe" fill-opacity="1" stroke-opacity="1"/><path d="M65,94L107,173L226,100Z" fill="#dbf0fa" stroke="#dbf0fa" fill-opacity="1" stroke-opacity="1"/><path d="M226,100L107,173L275,266Z" fill="#c6e8f8" stroke="#c6e8f8" fill-opacity="1" stroke-opacity="1"/><path d="M226,100L275,266L411,214Z" fill="#b9e3f4" stroke="#b9e3f4" fill-opacity="1" stroke-opacity="1"/><path d="M226,100L411,214L413,35Z" fill="#c8e6f3" stroke="#c8e6f3" fill-opacity="1" stroke-opacity="1"/><path d="M413,35L411,214L539,63Z" fill="#c0e2f0" stroke="#c0e2f0" fill-opacity="1" stroke-opacity="1"/><path d="M539,63L411,214L560,193Z" fill="#aedcee" stroke="#aedcee" fill-opacity="1" stroke-opacity="1"/><path d="M539,63L560,193L732,117Z" fill="#a9d7ec" stroke="#a9d7ec" fill-opacity="1" stroke-opacity="1"/><path d="M732,117L560,193L734,224Z" fill="#93cee9" stroke="#93cee9" fill-opacity="1" stroke-opacity="1"/><path d="M732,117L734,224L776,171Z" fill="#8bc7e4" stroke="#8bc7e4" fill-opacity="1" stroke-opacity="1"/><path d="M732,117L776,171L842,67Z" fill="#93c6e2" stroke="#93c6e2" fill-opacity="1" stroke-opacity="1"/><path d="M842,67L776,171L997,209Z" fill="#80bbdd" stroke="#80bbdd" fill-opacity="1" stroke-opacity="1"/><path d="M842,67L997,209L967,56Z" fill="#84b6d8" stroke="#84b6d8" fill-opacity="1" stroke-opacity="1"/><path d="M967,56L997,209L1156,51Z" fill="#7babd0" stroke="#7babd0" fill-opacity="1" stroke-opacity="1"/><path d="M1156,51L997,209L1146,272Z" fill="#649fcb" stroke="#649fcb" fill-opacity="1" stroke-opacity="1"/><path d="M1156,51L1146,272L1325,226Z" fill="#6192c3" stroke="#6192c3" fill-opacity="1" stroke-opacity="1"/><path d="M1156,51L1325,226L1335,76Z" fill="#718fbe" stroke="#718fbe" fill-opacity="1" stroke-opacity="1"/><path d="M1335,76L1325,226L1467,84Z" fill="#6f83b6" stroke="#6f83b6" fill-opacity="1" stroke-opacity="1"/><path d="M1467,84L1325,226L1421,257Z" fill="#607bb4" stroke="#607bb4" fill-opacity="1" stroke-opacity="1"/><path d="M1467,84L1421,257L1405,673Z" fill="#305cab" stroke="#305cab" fill-opacity="1" stroke-opacity="1"/><path d="M-73,198L-83,331L90,343Z" fill="#bae3ff" stroke="#bae3ff" fill-opacity="1" stroke-opacity="1"/><path d="M-73,198L90,343L107,173Z" fill="#c5e8fe" stroke="#c5e8fe" fill-opacity="1" stroke-opacity="1"/><path d="M107,173L90,343L166,365Z" fill="#acdafb" stroke="#acdafb" fill-opacity="1" stroke-opacity="1"/><path d="M107,173L166,365L275,266Z" fill="#aedbf8" stroke="#aedbf8" fill-opacity="1" stroke-opacity="1"/><path d="M275,266L166,365L205,466Z" fill="#8ac2ec" stroke="#8ac2ec" fill-opacity="1" stroke-opacity="1"/><path d="M275,266L205,466L398,371Z" fill="#81bfe9" stroke="#81bfe9" fill-opacity="1" stroke-opacity="1"/><path d="M275,266L398,371L411,214Z" fill="#98d1f2" stroke="#98d1f2" fill-opacity="1" stroke-opacity="1"/><path d="M411,214L398,371L560,193Z" fill="#96d1ef" stroke="#96d1ef" fill-opacity="1" stroke-opacity="1"/><path d="M560,193L398,371L489,425Z" fill="#7cc0e9" stroke="#7cc0e9" fill-opacity="1" stroke-opacity="1"/><path d="M560,193L489,425L634,430Z" fill="#6bb5e4" stroke="#6bb5e4" fill-opacity="1" stroke-opacity="1"/><path d="M560,193L634,430L734,224Z" fill="#78c0eb" stroke="#78c0eb" fill-opacity="1" stroke-opacity="1"/><path d="M734,224L634,430L880,373Z" fill="#55a6dd" stroke="#55a6dd" fill-opacity="1" stroke-opacity="1"/><path d="M734,224L880,373L941,318Z" fill="#54a6dd" stroke="#54a6dd" fill-opacity="1" stroke-opacity="1"/><path d="M734,224L941,318L776,171Z" fill="#6fb6e0" stroke="#6fb6e0" fill-opacity="1" stroke-opacity="1"/><path d="M776,171L941,318L997,209Z" fill="#66adda" stroke="#66adda" fill-opacity="1" stroke-opacity="1"/><path d="M997,209L941,318L1146,272Z" fill="#509ad1" stroke="#509ad1" fill-opacity="1" stroke-opacity="1"/><path d="M1146,272L941,318L1171,416Z" fill="#3383c6" stroke="#3383c6" fill-opacity="1" stroke-opacity="1"/><path d="M1146,272L1171,416L1288,368Z" fill="#2b71ba" stroke="#2b71ba" fill-opacity="1" stroke-opacity="1"/><path d="M1146,272L1288,368L1325,226Z" fill="#417cbf" stroke="#417cbf" fill-opacity="1" stroke-opacity="1"/><path d="M1325,226L1288,368L1421,257Z" fill="#4372b8" stroke="#4372b8" fill-opacity="1" stroke-opacity="1"/><path d="M1421,257L1288,368L1366,421Z" fill="#2d60af" stroke="#2d60af" fill-opacity="1" stroke-opacity="1"/><path d="M1421,257L1366,421L1368,525Z" fill="#1c4fa4" stroke="#1c4fa4" fill-opacity="1" stroke-opacity="1"/><path d="M1421,257L1368,525L1405,673Z" fill="#123493" stroke="#123493" fill-opacity="1" stroke-opacity="1"/><path d="M-83,331L-123,676L-56,535Z" fill="#8ea8d8" stroke="#8ea8d8" fill-opacity="1" stroke-opacity="1"/><path d="M-83,331L-56,535L90,343Z" fill="#95c5ee" stroke="#95c5ee" fill-opacity="1" stroke-opacity="1"/><path d="M90,343L-56,535L125,489Z" fill="#88b1e2" stroke="#88b1e2" fill-opacity="1" stroke-opacity="1"/><path d="M90,343L125,489L166,365Z" fill="#88beea" stroke="#88beea" fill-opacity="1" stroke-opacity="1"/><path d="M166,365L125,489L205,466Z" fill="#7fafe1" stroke="#7fafe1" fill-opacity="1" stroke-opacity="1"/><path d="M398,371L205,466L391,520Z" fill="#6ea5d8" stroke="#6ea5d8" fill-opacity="1" stroke-opacity="1"/><path d="M398,371L391,520L489,425Z" fill="#67a5d8" stroke="#67a5d8" fill-opacity="1" stroke-opacity="1"/><path d="M489,425L391,520L506,480Z" fill="#5f97d0" stroke="#5f97d0" fill-opacity="1" stroke-opacity="1"/><path d="M489,425L506,480L634,430Z" fill="#589bd4" stroke="#589bd4" fill-opacity="1" stroke-opacity="1"/><path d="M634,430L506,480L658,568Z" fill="#4c89c9" stroke="#4c89c9" fill-opacity="1" stroke-opacity="1"/><path d="M634,430L658,568L826,570Z" fill="#3a76be" stroke="#3a76be" fill-opacity="1" stroke-opacity="1"/><path d="M634,430L826,570L880,373Z" fill="#3882c7" stroke="#3882c7" fill-opacity="1" stroke-opacity="1"/><path d="M880,373L826,570L973,546Z" fill="#266bb7" stroke="#266bb7" fill-opacity="1" stroke-opacity="1"/><path d="M880,373L973,546L941,318Z" fill="#2c80c5" stroke="#2c80c5" fill-opacity="1" stroke-opacity="1"/><path d="M941,318L973,546L1171,416Z" fill="#2170bb" stroke="#2170bb" fill-opacity="1" stroke-opacity="1"/><path d="M1171,416L973,546L1084,573Z" fill="#1251a6" stroke="#1251a6" fill-opacity="1" stroke-opacity="1"/><path d="M1171,416L1084,573L1241,502Z" fill="#114ba2" stroke="#114ba2" fill-opacity="1" stroke-opacity="1"/><path d="M1171,416L1241,502L1288,368Z" fill="#1958aa" stroke="#1958aa" fill-opacity="1" stroke-opacity="1"/><path d="M1288,368L1241,502L1366,421Z" fill="#1950a5" stroke="#1950a5" fill-opacity="1" stroke-opacity="1"/><path d="M1366,421L1241,502L1368,525Z" fill="#133d99" stroke="#133d99" fill-opacity="1" stroke-opacity="1"/><path d="M-56,535L-123,676L64,685Z" fill="#7c81c0" stroke="#7c81c0" fill-opacity="1" stroke-opacity="1"/><path d="M-56,535L64,685L125,489Z" fill="#7b8fcb" stroke="#7b8fcb" fill-opacity="1" stroke-opacity="1"/><path d="M125,489L64,685L179,641Z" fill="#7080c1" stroke="#7080c1" fill-opacity="1" stroke-opacity="1"/><path d="M125,489L179,641L205,466Z" fill="#7494ce" stroke="#7494ce" fill-opacity="1" stroke-opacity="1"/><path d="M205,466L179,641L391,520Z" fill="#6b8cc9" stroke="#6b8cc9" fill-opacity="1" stroke-opacity="1"/><path d="M391,520L179,641L372,674Z" fill="#5d75b9" stroke="#5d75b9" fill-opacity="1" stroke-opacity="1"/><path d="M391,520L372,674L536,688Z" fill="#506bb2" stroke="#506bb2" fill-opacity="1" stroke-opacity="1"/><path d="M391,520L536,688L506,480Z" fill="#527cbe" stroke="#527cbe" fill-opacity="1" stroke-opacity="1"/><path d="M506,480L536,688L658,568Z" fill="#4672b9" stroke="#4672b9" fill-opacity="1" stroke-opacity="1"/><path d="M658,568L536,688L696,642Z" fill="#385dac" stroke="#385dac" fill-opacity="1" stroke-opacity="1"/><path d="M658,568L696,642L826,570Z" fill="#2f5faf" stroke="#2f5faf" fill-opacity="1" stroke-opacity="1"/><path d="M826,570L696,642L825,710Z" fill="#224ba2" stroke="#224ba2" fill-opacity="1" stroke-opacity="1"/><path d="M826,570L825,710L973,546Z" fill="#1a4ba3" stroke="#1a4ba3" fill-opacity="1" stroke-opacity="1"/><path d="M973,546L825,710L1004,725Z" fill="#113894" stroke="#113894" fill-opacity="1" stroke-opacity="1"/><path d="M973,546L1004,725L1084,573Z" fill="#0c3996" stroke="#0c3996" fill-opacity="1" stroke-opacity="1"/><path d="M1084,573L1004,725L1163,656Z" fill="#03278a" stroke="#03278a" fill-opacity="1" stroke-opacity="1"/><path d="M1084,573L1163,656L1241,502Z" fill="#083492" stroke="#083492" fill-opacity="1" stroke-opacity="1"/><path d="M1241,502L1163,656L1266,706Z" fill="#021f85" stroke="#021f85" fill-opacity="1" stroke-opacity="1"/><path d="M1241,502L1266,706L1368,525Z" fill="#072488" stroke="#072488" fill-opacity="1" stroke-opacity="1"/><path d="M1368,525L1266,706L1405,673Z" fill="#010d79" stroke="#010d79" fill-opacity="1" stroke-opacity="1"/><path d="M64,685L1004,725L825,710Z" fill="#37589d" stroke="#37589d" fill-opacity="1" stroke-opacity="1"/><path d="M64,685L825,710L536,688Z" fill="#4962a4" stroke="#4962a4" fill-opacity="1" stroke-opacity="1"/><path d="M64,685L536,688L372,674Z" fill="#5969ab" stroke="#5969ab" fill-opacity="1" stroke-opacity="1"/><path d="M64,685L372,674L179,641Z" fill="#646eb2" stroke="#646eb2" fill-opacity="1" stroke-opacity="1"/><path d="M536,688L825,710L696,642Z" fill="#3053a0" stroke="#3053a0" fill-opacity="1" stroke-opacity="1"/><path d="M1004,725L1266,706L1163,656Z" fill="#00207c" stroke="#00207c" fill-opacity="1" stroke-opacity="1"/></g></svg>